<svg width="30" height="30" viewBox="0 0 30 30" fill="none" xmlns="http://www.w3.org/2000/svg">
<path d="M26.25 15C26.25 21.2132 21.2132 26.25 15 26.25C12.7862 26.25 10.7217 25.6105 8.98121 24.5063L3.75 26.25L5.49374 21.0188C4.38946 19.2783 3.75 17.2138 3.75 15C3.75 8.7868 8.7868 3.75 15 3.75C21.2132 3.75 26.25 8.7868 26.25 15Z" stroke="#888888" stroke-width="1.5" stroke-linecap="round" stroke-linejoin="round"/>
<path d="M16.875 15C16.875 16.0355 16.0355 16.875 15 16.875C13.9645 16.875 13.125 16.0355 13.125 15C13.125 13.9645 13.9645 13.125 15 13.125C16.0355 13.125 16.875 13.9645 16.875 15Z" fill="#888888"/>
<path d="M22.5 15C22.5 16.0355 21.6605 16.875 20.625 16.875C19.5895 16.875 18.75 16.0355 18.75 15C18.75 13.9645 19.5895 13.125 20.625 13.125C21.6605 13.125 22.5 13.9645 22.5 15Z" fill="#888888"/>
<path d="M11.25 15C11.25 16.0355 10.4105 16.875 9.375 16.875C8.33947 16.875 7.5 16.0355 7.5 15C7.5 13.9645 8.33947 13.125 9.375 13.125C10.4105 13.125 11.25 13.9645 11.25 15Z" fill="#888888"/>
</svg>
