<svg width="35" height="36" viewBox="0 0 35 36" fill="none" xmlns="http://www.w3.org/2000/svg">
<path d="M11.1236 22.1254C11.876 25.047 14.5298 27.2057 17.6881 27.2057C20.8464 27.2057 23.5002 25.047 24.2527 22.1254M16.0236 3.098L4.53089 12.0311C3.76265 12.6282 3.37853 12.9268 3.1018 13.3007C2.85666 13.6319 2.67406 14.0051 2.56294 14.4018C2.4375 14.8496 2.4375 15.3359 2.4375 16.3086V28.5605C2.4375 30.4573 2.4375 31.4057 2.80688 32.1302C3.1318 32.7675 3.65026 33.2856 4.28794 33.6103C5.0129 33.9795 5.96191 33.9795 7.85995 33.9795H27.5163C29.4144 33.9795 30.3634 33.9795 31.0883 33.6103C31.726 33.2856 32.2445 32.7675 32.5694 32.1302C32.9388 31.4057 32.9388 30.4573 32.9388 28.5605V16.3086C32.9388 15.3359 32.9388 14.8496 32.8133 14.4018C32.7022 14.0051 32.5196 13.6319 32.2745 13.3007C31.9977 12.9268 31.6136 12.6282 30.8454 12.0311L19.3527 3.098C18.7573 2.63526 18.4597 2.4039 18.131 2.31496C17.841 2.23649 17.5353 2.23649 17.2453 2.31496C16.9166 2.4039 16.6189 2.63526 16.0236 3.098Z" stroke="#8229E0" stroke-width="4" stroke-linecap="round" stroke-linejoin="round"/>
</svg>
