<svg width="24" height="24" viewBox="0 0 24 24" fill="none" xmlns="http://www.w3.org/2000/svg">
<path d="M14.4677 8.62495V4.12498C14.4677 3.22988 14.1064 2.37144 13.4632 1.73851C12.8201 1.10558 11.9478 0.75 11.0382 0.75L6.46569 10.8749V23.2499H19.3603C19.9117 23.256 20.4467 23.0658 20.8669 22.7144C21.287 22.3629 21.5639 21.8739 21.6466 21.3374L23.2241 11.2124C23.2738 10.89 23.2517 10.5607 23.1593 10.2475C23.0669 9.93424 22.9064 9.64452 22.689 9.3984C22.4715 9.15227 22.2022 8.95562 21.8999 8.82207C21.5975 8.68852 21.2692 8.62126 20.9378 8.62495H14.4677ZM6.46569 23.2499H3.03628C2.42992 23.2499 1.8484 23.0128 1.41964 22.5909C0.990875 22.1689 0.75 21.5966 0.75 20.9999V13.1249C0.75 12.5282 0.990875 11.9559 1.41964 11.5339C1.8484 11.112 2.42992 10.8749 3.03628 10.8749H6.46569" fill="#8229E0"/>
<path d="M6.46569 10.8749L11.0382 0.75C11.9478 0.75 12.8201 1.10558 13.4632 1.73851C14.1064 2.37144 14.4677 3.22988 14.4677 4.12498V8.62495H20.9378C21.2692 8.62126 21.5975 8.68852 21.8999 8.82207C22.2022 8.95562 22.4715 9.15227 22.689 9.3984C22.9064 9.64452 23.0669 9.93424 23.1593 10.2475C23.2517 10.5607 23.2738 10.89 23.2241 11.2124L21.6466 21.3374C21.5639 21.8739 21.287 22.3629 20.8669 22.7144C20.4467 23.0658 19.9117 23.256 19.3603 23.2499H6.46569M6.46569 10.8749V23.2499M6.46569 10.8749H3.03628C2.42992 10.8749 1.8484 11.112 1.41964 11.5339C0.990875 11.9559 0.75 12.5282 0.75 13.1249V20.9999C0.75 21.5966 0.990875 22.1689 1.41964 22.5909C1.8484 23.0128 2.42992 23.2499 3.03628 23.2499H6.46569" stroke="white" stroke-width="1.5" stroke-linecap="round" stroke-linejoin="round"/>
</svg>
